<?xml version="1.0" encoding="UTF-8" standalone="no"?>
<svg
   xmlns:dc="http://purl.org/dc/elements/1.1/"
   xmlns:cc="http://creativecommons.org/ns#"
   xmlns:rdf="http://www.w3.org/1999/02/22-rdf-syntax-ns#"
   xmlns:svg="http://www.w3.org/2000/svg"
   xmlns="http://www.w3.org/2000/svg"
   xmlns:sodipodi="http://sodipodi.sourceforge.net/DTD/sodipodi-0.dtd"
   xmlns:inkscape="http://www.inkscape.org/namespaces/inkscape"
   viewBox="0 0 32 32"
   version="1.1"
   id="svg4"
   sodipodi:docname="zoom.svg"
   inkscape:version="0.92.3 (2405546, 2018-03-11)">
  <metadata
     id="metadata10">
    <rdf:RDF>
      <cc:Work
         rdf:about="">
        <dc:format>image/svg+xml</dc:format>
        <dc:type
           rdf:resource="http://purl.org/dc/dcmitype/StillImage" />
      </cc:Work>
    </rdf:RDF>
  </metadata>
  <defs
     id="defs8" />
  <sodipodi:namedview
     pagecolor="#ffffff"
     bordercolor="#666666"
     borderopacity="1"
     objecttolerance="10"
     gridtolerance="10"
     guidetolerance="10"
     inkscape:pageopacity="0"
     inkscape:pageshadow="2"
     inkscape:window-width="1920"
     inkscape:window-height="1046"
     id="namedview6"
     showgrid="false"
     inkscape:zoom="7.375"
     inkscape:cx="16"
     inkscape:cy="16"
     inkscape:window-x="0"
     inkscape:window-y="0"
     inkscape:window-maximized="1"
     inkscape:current-layer="svg4" />
  <path
     style="line-height:normal;text-indent:0;text-align:start;text-decoration:none;text-decoration-line:none;text-decoration-style:solid;text-decoration-color:#000000;text-transform:none;isolation:auto;mix-blend-mode:normal"
     d="m 13.292969,3 c 5.511003,0 10,4.4889971 10,10 0,2.396508 -0.851014,4.597385 -2.263672,6.322266 L 29,27.292969 27.585938,28.707031 19.615235,20.736328 C 17.890354,22.148986 15.689477,23 13.292969,23 7.7819658,23 3.2929688,18.511003 3.2929688,13 c 0,-5.5110029 4.488997,-10 10.0000002,-10 z m 0,2 c -4.4301232,0 -8.0000002,3.5698774 -8.0000002,8 0,4.430123 3.569877,8 8.0000002,8 4.430123,0 8,-3.569877 8,-8 0,-4.4301226 -3.569877,-8 -8,-8 z m 5,3 v 4 L 17,10.707031 14.707031,13 17,15.292969 18.292969,14 v 4 h -4 L 15.585938,16.707031 13.292969,14.414062 11,16.707031 12.292969,18 H 8.2929688 V 14 L 9.5859378,15.292969 11.878907,13 9.5859378,10.707031 8.2929688,12 V 8 H 12.292969 L 11,9.2929688 13.292969,11.585938 15.585938,9.2929688 14.292969,8 Z"
     id="path2"
     inkscape:connector-curvature="0" />
</svg>
